M48
METRIC
T1C0.300
T2C0.300
T3C1.000
%
G90
G05
T1
X123.39Y29.65
X123.59Y28.86
X124.23Y29.58
X124.48Y28.9
X125.15Y35.5
X125.64Y36.16
X125.64Y38.11
X125.65Y37.22
X125.66Y38.98
X125.66Y39.85
X126.42Y40.29
X127.23Y36.32
X127.26Y40.6
X127.63Y34.14
X127.67Y29.04
X128.04Y40.62
X128.5Y29.06
X129.17Y29.08
X129.36Y40.69
X131.76Y36.04
X131.81Y29.15
X132.05Y40.67
X132.46Y28.89
X132.88Y40.66
X133.72Y37.56
X133.76Y38.44
X133.76Y39.33
X133.79Y40.26
X133.83Y41.03
X134.69Y39.39
X134.82Y41.15
X134.83Y40.31
X135.01Y30.26
X135.69Y39.48
X135.73Y41.26
X135.9Y40.33
X136.57Y41.42
X136.63Y39.44
X136.89Y40.34
X137.21Y32.3
X137.45Y39.43
X138.1Y32.27
X138.18Y35.5
X138.26Y36.23
X138.35Y39.73
X138.81Y32.31
X139.27Y36.14
X139.66Y35.42
X139.73Y32.34
X140.57Y32.28
X140.88Y33.89
X140.89Y33.19
X140.98Y34.68
X140.99Y38.45
X141.97Y38.32
X142.72Y37.89
T2
X129.76Y30.442
X129.76Y31.542
X129.76Y32.843
X129.76Y34.042
X130.96Y30.442
X130.96Y31.542
X130.96Y32.843
X130.96Y34.042
T3
X124.58Y42.17
X127.12Y42.17
X139.4Y42.24
X141.94Y42.24
M30
