%TF.GenerationSoftware,KiCad,Pcbnew,8.0.4*%
%TF.CreationDate,2026-02-25T15:38:23+07:00*%
%TF.ProjectId,Buck_V1.1,4275636b-5f56-4312-9e31-2e6b69636164,rev?*%
%TF.SameCoordinates,Original*%
%TF.FileFunction,Copper,L1,Top*%
%TF.FilePolarity,Positive*%
%FSLAX46Y46*%
G04 Gerber Fmt 4.6, Leading zero omitted, Abs format (unit mm)*
G04 Created by KiCad (PCBNEW 8.0.4) date 2026-02-25 15:38:23*
%MOMM*%
%LPD*%
G01*
G04 APERTURE LIST*
G04 Aperture macros list*
%AMRoundRect*
0 Rectangle with rounded corners*
0 $1 Rounding radius*
0 $2 $3 $4 $5 $6 $7 $8 $9 X,Y pos of 4 corners*
0 Add a 4 corners polygon primitive as box body*
4,1,4,$2,$3,$4,$5,$6,$7,$8,$9,$2,$3,0*
0 Add four circle primitives for the rounded corners*
1,1,$1+$1,$2,$3*
1,1,$1+$1,$4,$5*
1,1,$1+$1,$6,$7*
1,1,$1+$1,$8,$9*
0 Add four rect primitives between the rounded corners*
20,1,$1+$1,$2,$3,$4,$5,0*
20,1,$1+$1,$4,$5,$6,$7,0*
20,1,$1+$1,$6,$7,$8,$9,0*
20,1,$1+$1,$8,$9,$2,$3,0*%
G04 Aperture macros list end*
%TA.AperFunction,SMDPad,CuDef*%
%ADD10RoundRect,0.180000X1.020000X0.720000X-1.020000X0.720000X-1.020000X-0.720000X1.020000X-0.720000X0*%
%TD*%
%TA.AperFunction,SMDPad,CuDef*%
%ADD11RoundRect,0.127500X-0.297500X-0.322500X0.297500X-0.322500X0.297500X0.322500X-0.297500X0.322500X0*%
%TD*%
%TA.AperFunction,SMDPad,CuDef*%
%ADD12R,1.550000X0.600000*%
%TD*%
%TA.AperFunction,ComponentPad*%
%ADD13C,0.600000*%
%TD*%
%TA.AperFunction,SMDPad,CuDef*%
%ADD14R,2.600000X3.100000*%
%TD*%
%TA.AperFunction,SMDPad,CuDef*%
%ADD15R,2.950000X4.500000*%
%TD*%
%TA.AperFunction,ComponentPad*%
%ADD16R,1.700000X1.700000*%
%TD*%
%TA.AperFunction,ComponentPad*%
%ADD17O,1.700000X1.700000*%
%TD*%
%TA.AperFunction,SMDPad,CuDef*%
%ADD18R,4.700000X1.180000*%
%TD*%
%TA.AperFunction,SMDPad,CuDef*%
%ADD19RoundRect,0.127500X0.322500X-0.297500X0.322500X0.297500X-0.322500X0.297500X-0.322500X-0.297500X0*%
%TD*%
%TA.AperFunction,SMDPad,CuDef*%
%ADD20RoundRect,0.127500X-0.322500X0.297500X-0.322500X-0.297500X0.322500X-0.297500X0.322500X0.297500X0*%
%TD*%
%TA.AperFunction,ViaPad*%
%ADD21C,0.600000*%
%TD*%
%TA.AperFunction,Conductor*%
%ADD22C,0.500000*%
%TD*%
%TA.AperFunction,Conductor*%
%ADD23C,0.700000*%
%TD*%
%TA.AperFunction,Conductor*%
%ADD24C,0.300000*%
%TD*%
G04 APERTURE END LIST*
D10*
%TO.P,D3,1,K*%
%TO.N,Net-(D3-K)*%
X127530000Y-38552500D03*
%TO.P,D3,2,A*%
%TO.N,GND*%
X131580000Y-38552500D03*
%TD*%
D11*
%TO.P,C5,1*%
%TO.N,/Vout*%
X133310000Y-36002500D03*
%TO.P,C5,2*%
%TO.N,GND*%
X131760000Y-36002500D03*
%TD*%
%TO.P,C4,1*%
%TO.N,/Vout*%
X130120000Y-36002501D03*
%TO.P,C4,2*%
%TO.N,GND*%
X128570000Y-36002501D03*
%TD*%
D12*
%TO.P,U1,1,BOOT*%
%TO.N,Net-(U1-BOOT)*%
X133060000Y-34147500D03*
%TO.P,U1,2,NC*%
%TO.N,unconnected-(U1-NC-Pad2)*%
X133060000Y-32877500D03*
%TO.P,U1,3,NC*%
%TO.N,unconnected-(U1-NC-Pad3)*%
X133060000Y-31607500D03*
%TO.P,U1,4,VSENSE*%
%TO.N,GND*%
X133060000Y-30337500D03*
%TO.P,U1,5,EN*%
X127660000Y-30337500D03*
%TO.P,U1,6,GND*%
X127660000Y-31607500D03*
%TO.P,U1,7,VIN*%
%TO.N,/Vin*%
X127660000Y-32877500D03*
%TO.P,U1,8,PH*%
%TO.N,Net-(D3-K)*%
X127660000Y-34147500D03*
D13*
%TO.P,U1,9,GNDPAD*%
%TO.N,AGND*%
X130960000Y-34042500D03*
X130960000Y-32842500D03*
X130960000Y-31542500D03*
X130960000Y-30442500D03*
D14*
X130360000Y-32242500D03*
D15*
X130360000Y-32242500D03*
D13*
X129760000Y-34042500D03*
X129760000Y-32842500D03*
X129760000Y-31542500D03*
X129760000Y-30442500D03*
%TD*%
D16*
%TO.P,IN,1,Pin_1*%
%TO.N,/Vin*%
X124580000Y-42170000D03*
D17*
%TO.P,IN,2,Pin_2*%
%TO.N,GND*%
X127120000Y-42170000D03*
%TD*%
D18*
%TO.P,L3,1*%
%TO.N,Net-(D3-K)*%
X137360000Y-34130000D03*
%TO.P,L3,2*%
%TO.N,/Vout*%
X137360000Y-37440000D03*
%TD*%
D19*
%TO.P,C2,1*%
%TO.N,/Vin*%
X125720000Y-32732500D03*
%TO.P,C2,2*%
%TO.N,GND*%
X125720000Y-34282500D03*
%TD*%
D11*
%TO.P,R2,1*%
%TO.N,Net-(R1-Pad2)*%
X139030000Y-29840000D03*
%TO.P,R2,2*%
%TO.N,GND*%
X137480000Y-29840000D03*
%TD*%
D20*
%TO.P,C1,1*%
%TO.N,/Vin*%
X125730000Y-31052500D03*
%TO.P,C1,2*%
%TO.N,GND*%
X125730000Y-29502500D03*
%TD*%
D19*
%TO.P,C3,1*%
%TO.N,Net-(D3-K)*%
X134990000Y-30257500D03*
%TO.P,C3,2*%
%TO.N,Net-(U1-BOOT)*%
X134990000Y-31807500D03*
%TD*%
D16*
%TO.P,OUT,1,Pin_1*%
%TO.N,/Vout*%
X141940000Y-42240000D03*
D17*
%TO.P,OUT,2,Pin_2*%
%TO.N,GND*%
X139400000Y-42240000D03*
%TD*%
D20*
%TO.P,R1,1*%
%TO.N,/Vout*%
X141920000Y-31385000D03*
%TO.P,R1,2*%
%TO.N,Net-(R1-Pad2)*%
X141920000Y-29835000D03*
%TD*%
D21*
%TO.N,GND*%
X127230000Y-36320000D03*
X134690000Y-39390000D03*
X128500000Y-29060000D03*
X133720000Y-37560000D03*
X129170000Y-29080000D03*
X132880000Y-40660000D03*
X133760000Y-39330000D03*
X134820000Y-41150000D03*
X123390000Y-29650000D03*
X140990000Y-38450000D03*
X141970000Y-38320000D03*
X133830000Y-41030000D03*
X140570000Y-32280000D03*
X138180000Y-35500000D03*
X139730000Y-32340000D03*
X135690000Y-39480000D03*
X129360000Y-40690000D03*
X127670000Y-29040000D03*
X127260000Y-40600000D03*
X142720000Y-37890000D03*
X134830000Y-40310000D03*
X133760000Y-38440000D03*
X132460000Y-28890000D03*
X132050000Y-40670000D03*
X125660000Y-39850000D03*
X137450000Y-39430000D03*
X140890000Y-33190000D03*
X140880000Y-33890000D03*
X139270000Y-36140000D03*
X131810000Y-29150000D03*
X124480000Y-28900000D03*
X125640000Y-36160000D03*
X138260000Y-36230000D03*
X128040000Y-40620000D03*
X138100000Y-32270000D03*
X140980000Y-34680000D03*
X123590000Y-28860000D03*
X125640000Y-38110000D03*
X138350000Y-39730000D03*
X125650000Y-37220000D03*
X136630000Y-39440000D03*
X126420000Y-40290000D03*
X139660000Y-35420000D03*
X135900000Y-40330000D03*
X136570000Y-41420000D03*
X124230000Y-29580000D03*
X133790000Y-40260000D03*
X136890000Y-40340000D03*
X138810000Y-32310000D03*
X131760000Y-36040000D03*
X137210000Y-32300000D03*
X135730000Y-41260000D03*
X125150000Y-35500000D03*
X125660000Y-38980000D03*
%TO.N,Net-(D3-K)*%
X135010000Y-30260000D03*
X127630000Y-34140000D03*
%TD*%
D22*
%TO.N,GND*%
X133060000Y-29430000D02*
X133060000Y-30337500D01*
X127547499Y-36002501D02*
X127230000Y-36320000D01*
X125730000Y-29502500D02*
X125082500Y-29502500D01*
X132460000Y-28890000D02*
X132520000Y-28890000D01*
X128570000Y-36002501D02*
X127547499Y-36002501D01*
X132520000Y-28890000D02*
X133060000Y-29430000D01*
D23*
X128820000Y-42240000D02*
X127190000Y-42240000D01*
D22*
X125720000Y-34930000D02*
X125150000Y-35500000D01*
X137480000Y-29390000D02*
X137040000Y-28950000D01*
X125082500Y-29502500D02*
X124480000Y-28900000D01*
X127660000Y-30337500D02*
X126825000Y-29502500D01*
D23*
X131580000Y-38552500D02*
X131580000Y-39820000D01*
X139400000Y-42240000D02*
X128820000Y-42240000D01*
D22*
X126825000Y-29502500D02*
X125730000Y-29502500D01*
D23*
X131580000Y-39820000D02*
X129160000Y-42240000D01*
D22*
X133540000Y-28950000D02*
X133060000Y-29430000D01*
D23*
X127190000Y-42240000D02*
X127120000Y-42170000D01*
D22*
X137480000Y-29840000D02*
X137480000Y-29390000D01*
X137040000Y-28950000D02*
X133540000Y-28950000D01*
X125720000Y-34282500D02*
X125720000Y-34930000D01*
D23*
X129160000Y-42240000D02*
X128820000Y-42240000D01*
D22*
X127660000Y-30337500D02*
X127660000Y-31607500D01*
D24*
%TO.N,Net-(U1-BOOT)*%
X134990000Y-31807500D02*
X134990000Y-32620000D01*
X134990000Y-32620000D02*
X133462500Y-34147500D01*
X133462500Y-34147500D02*
X133060000Y-34147500D01*
D23*
%TO.N,/Vout*%
X141940000Y-40900000D02*
X140690000Y-39650000D01*
X131119999Y-37002500D02*
X132760000Y-37002500D01*
X141920000Y-36980000D02*
X141460000Y-37440000D01*
X135922500Y-36002500D02*
X137360000Y-37440000D01*
X141460000Y-37440000D02*
X137360000Y-37440000D01*
X130120000Y-36002501D02*
X131119999Y-37002500D01*
X140690000Y-39650000D02*
X139570000Y-39650000D01*
X132760000Y-37002500D02*
X133310000Y-36452500D01*
X133310000Y-36002500D02*
X135922500Y-36002500D01*
X133310000Y-36452500D02*
X133310000Y-36002500D01*
X141940000Y-42240000D02*
X141940000Y-40900000D01*
X139570000Y-39650000D02*
X137360000Y-37440000D01*
X141920000Y-31385000D02*
X141920000Y-36980000D01*
D24*
%TO.N,Net-(R1-Pad2)*%
X141915000Y-29840000D02*
X141920000Y-29835000D01*
X139030000Y-29840000D02*
X141915000Y-29840000D01*
D23*
%TO.N,/Vin*%
X125730000Y-32722500D02*
X125720000Y-32732500D01*
X127660000Y-32877500D02*
X125865000Y-32877500D01*
X125865000Y-32877500D02*
X125720000Y-32732500D01*
%TO.N,Net-(D3-K)*%
X136000000Y-32770000D02*
X137360000Y-34130000D01*
X135440000Y-30257500D02*
X136000000Y-30817500D01*
D24*
X126320000Y-37342500D02*
X127530000Y-38552500D01*
X127637500Y-34147500D02*
X127630000Y-34140000D01*
D23*
X135007500Y-30257500D02*
X135010000Y-30260000D01*
D24*
X126320000Y-35400000D02*
X126320000Y-37342500D01*
D23*
X135012500Y-30257500D02*
X135440000Y-30257500D01*
X136000000Y-30817500D02*
X136000000Y-32770000D01*
D24*
X127622500Y-34147500D02*
X127572500Y-34147500D01*
X127630000Y-34140000D02*
X127622500Y-34147500D01*
D23*
X134990000Y-30257500D02*
X135007500Y-30257500D01*
D24*
X127660000Y-34147500D02*
X127637500Y-34147500D01*
D23*
X135010000Y-30260000D02*
X135012500Y-30257500D01*
D24*
X127572500Y-34147500D02*
X126320000Y-35400000D01*
%TD*%
%TA.AperFunction,Conductor*%
%TO.N,/Vin*%
G36*
X124794945Y-29974125D02*
G01*
X124813611Y-29982919D01*
X124842304Y-29999485D01*
X124842306Y-29999486D01*
X124870012Y-30015483D01*
X124870014Y-30015483D01*
X124870015Y-30015484D01*
X124969822Y-30042227D01*
X125029481Y-30078591D01*
X125060010Y-30141438D01*
X125051715Y-30210813D01*
X125023434Y-30247794D01*
X125025360Y-30249720D01*
X124907741Y-30367338D01*
X124907735Y-30367346D01*
X124827032Y-30503808D01*
X124827030Y-30503813D01*
X124782800Y-30656052D01*
X124782799Y-30656058D01*
X124780000Y-30691628D01*
X124780000Y-30802500D01*
X125856000Y-30802500D01*
X125923039Y-30822185D01*
X125968794Y-30874989D01*
X125980000Y-30926500D01*
X125980000Y-31959138D01*
X125970000Y-31993193D01*
X125970000Y-32482500D01*
X126589000Y-32482500D01*
X126656039Y-32502185D01*
X126701794Y-32554989D01*
X126713000Y-32606500D01*
X126713000Y-32627500D01*
X127786000Y-32627500D01*
X127853039Y-32647185D01*
X127898794Y-32699989D01*
X127910000Y-32751500D01*
X127910000Y-33003500D01*
X127890315Y-33070539D01*
X127837511Y-33116294D01*
X127786000Y-33127500D01*
X126466000Y-33127500D01*
X126398961Y-33107815D01*
X126353206Y-33055011D01*
X126342000Y-33003500D01*
X126342000Y-32982500D01*
X124770000Y-32982500D01*
X124770000Y-33093371D01*
X124772799Y-33128941D01*
X124772800Y-33128947D01*
X124817030Y-33281186D01*
X124817032Y-33281191D01*
X124897735Y-33417653D01*
X124897741Y-33417661D01*
X125009838Y-33529758D01*
X125009847Y-33529765D01*
X125025109Y-33538791D01*
X125072793Y-33589860D01*
X125085296Y-33658602D01*
X125061759Y-33719156D01*
X125014824Y-33782751D01*
X124972211Y-33904528D01*
X124972211Y-33904530D01*
X124969500Y-33933446D01*
X124969500Y-34631542D01*
X124969501Y-34631548D01*
X124972212Y-34660469D01*
X124972212Y-34660471D01*
X124972213Y-34660474D01*
X125008376Y-34763821D01*
X125011938Y-34833600D01*
X124979016Y-34892457D01*
X124947995Y-34923478D01*
X124907768Y-34950357D01*
X124847165Y-34975460D01*
X124847158Y-34975464D01*
X124721719Y-35071716D01*
X124625463Y-35197160D01*
X124564956Y-35343237D01*
X124564955Y-35343239D01*
X124544318Y-35499998D01*
X124544318Y-35500001D01*
X124564955Y-35656760D01*
X124564956Y-35656762D01*
X124619869Y-35789335D01*
X124625464Y-35802841D01*
X124721718Y-35928282D01*
X124847159Y-36024536D01*
X124960108Y-36071321D01*
X125014511Y-36115162D01*
X125035594Y-36169696D01*
X125043534Y-36230001D01*
X125054956Y-36316762D01*
X125115464Y-36462841D01*
X125184646Y-36553001D01*
X125211719Y-36588283D01*
X125221073Y-36595460D01*
X125262276Y-36651888D01*
X125266431Y-36721634D01*
X125232219Y-36782554D01*
X125222195Y-36791240D01*
X125221722Y-36791713D01*
X125221718Y-36791717D01*
X125221718Y-36791718D01*
X125211423Y-36805135D01*
X125125463Y-36917160D01*
X125064956Y-37063237D01*
X125064955Y-37063239D01*
X125044318Y-37219998D01*
X125044318Y-37220001D01*
X125064955Y-37376760D01*
X125064956Y-37376762D01*
X125125464Y-37522842D01*
X125171623Y-37582997D01*
X125196817Y-37648166D01*
X125182779Y-37716611D01*
X125171624Y-37733968D01*
X125115464Y-37807158D01*
X125054956Y-37953237D01*
X125054955Y-37953239D01*
X125034318Y-38109998D01*
X125034318Y-38110001D01*
X125054955Y-38266760D01*
X125054956Y-38266762D01*
X125115464Y-38412842D01*
X125143975Y-38449998D01*
X125167654Y-38480857D01*
X125168949Y-38482544D01*
X125194144Y-38547713D01*
X125180106Y-38616158D01*
X125168951Y-38633516D01*
X125135464Y-38677158D01*
X125074956Y-38823237D01*
X125074955Y-38823239D01*
X125054318Y-38979998D01*
X125054318Y-38980001D01*
X125074955Y-39136760D01*
X125074956Y-39136762D01*
X125135464Y-39282842D01*
X125178950Y-39339514D01*
X125204144Y-39404683D01*
X125190105Y-39473128D01*
X125178950Y-39490486D01*
X125135464Y-39547157D01*
X125074956Y-39693237D01*
X125074955Y-39693239D01*
X125054318Y-39849998D01*
X125054318Y-39850001D01*
X125074955Y-40006760D01*
X125074956Y-40006762D01*
X125132407Y-40145462D01*
X125135464Y-40152841D01*
X125231718Y-40278282D01*
X125357159Y-40374536D01*
X125503238Y-40435044D01*
X125660000Y-40455682D01*
X125735079Y-40445797D01*
X125804112Y-40456562D01*
X125856368Y-40502941D01*
X125865824Y-40521284D01*
X125895462Y-40592838D01*
X125895463Y-40592840D01*
X125895464Y-40592841D01*
X125991718Y-40718282D01*
X126117159Y-40814536D01*
X126263238Y-40875044D01*
X126341619Y-40885363D01*
X126419999Y-40895682D01*
X126420000Y-40895682D01*
X126420001Y-40895682D01*
X126459190Y-40890522D01*
X126576762Y-40875044D01*
X126593097Y-40868277D01*
X126662562Y-40860807D01*
X126725042Y-40892080D01*
X126738925Y-40907352D01*
X126742536Y-40912058D01*
X126767730Y-40977227D01*
X126753691Y-41045672D01*
X126704877Y-41095662D01*
X126688954Y-41103171D01*
X126604982Y-41135701D01*
X126604980Y-41135702D01*
X126423699Y-41247947D01*
X126266127Y-41391593D01*
X126152954Y-41541458D01*
X126096845Y-41583094D01*
X126027133Y-41587785D01*
X125965951Y-41554043D01*
X125932724Y-41492579D01*
X125930000Y-41466731D01*
X125930000Y-41272172D01*
X125929999Y-41272155D01*
X125923598Y-41212627D01*
X125923596Y-41212620D01*
X125873354Y-41077913D01*
X125873350Y-41077906D01*
X125787190Y-40962812D01*
X125787187Y-40962809D01*
X125672093Y-40876649D01*
X125672086Y-40876645D01*
X125537379Y-40826403D01*
X125537372Y-40826401D01*
X125477844Y-40820000D01*
X124830000Y-40820000D01*
X124830000Y-41736988D01*
X124772993Y-41704075D01*
X124645826Y-41670000D01*
X124514174Y-41670000D01*
X124387007Y-41704075D01*
X124330000Y-41736988D01*
X124330000Y-40820000D01*
X123682155Y-40820000D01*
X123622627Y-40826401D01*
X123622620Y-40826403D01*
X123487913Y-40876645D01*
X123487906Y-40876649D01*
X123372812Y-40962809D01*
X123372809Y-40962812D01*
X123286649Y-41077906D01*
X123286645Y-41077913D01*
X123236403Y-41212620D01*
X123236401Y-41212627D01*
X123230000Y-41272155D01*
X123230000Y-41920000D01*
X124146988Y-41920000D01*
X124114075Y-41977007D01*
X124080000Y-42104174D01*
X124080000Y-42235826D01*
X124114075Y-42362993D01*
X124146988Y-42420000D01*
X123230000Y-42420000D01*
X123230000Y-43067844D01*
X123236401Y-43127372D01*
X123236403Y-43127379D01*
X123286645Y-43262086D01*
X123286649Y-43262093D01*
X123372809Y-43377187D01*
X123372812Y-43377190D01*
X123487906Y-43463350D01*
X123487913Y-43463354D01*
X123622620Y-43513596D01*
X123622627Y-43513598D01*
X123682155Y-43519999D01*
X123682172Y-43520000D01*
X124330000Y-43520000D01*
X124330000Y-42603012D01*
X124387007Y-42635925D01*
X124514174Y-42670000D01*
X124645826Y-42670000D01*
X124772993Y-42635925D01*
X124830000Y-42603012D01*
X124830000Y-43520000D01*
X125477828Y-43520000D01*
X125477844Y-43519999D01*
X125537372Y-43513598D01*
X125537379Y-43513596D01*
X125672086Y-43463354D01*
X125672093Y-43463350D01*
X125787187Y-43377190D01*
X125787190Y-43377187D01*
X125873350Y-43262093D01*
X125873354Y-43262086D01*
X125923596Y-43127379D01*
X125923598Y-43127372D01*
X125929999Y-43067844D01*
X125930000Y-43067827D01*
X125930000Y-42873268D01*
X125949685Y-42806229D01*
X126002489Y-42760474D01*
X126071647Y-42750530D01*
X126135203Y-42779555D01*
X126152950Y-42798537D01*
X126266128Y-42948407D01*
X126423698Y-43092052D01*
X126604981Y-43204298D01*
X126803802Y-43281321D01*
X127013390Y-43320500D01*
X127013392Y-43320500D01*
X127226608Y-43320500D01*
X127226610Y-43320500D01*
X127436198Y-43281321D01*
X127635019Y-43204298D01*
X127816302Y-43092052D01*
X127973872Y-42948407D01*
X127980392Y-42939772D01*
X128036501Y-42898137D01*
X128079346Y-42890500D01*
X128755931Y-42890500D01*
X129224069Y-42890500D01*
X138387792Y-42890500D01*
X138454831Y-42910185D01*
X138486744Y-42939771D01*
X138546128Y-43018407D01*
X138703698Y-43162052D01*
X138884981Y-43274298D01*
X139083802Y-43351321D01*
X139293390Y-43390500D01*
X139293392Y-43390500D01*
X139506608Y-43390500D01*
X139506610Y-43390500D01*
X139716198Y-43351321D01*
X139915019Y-43274298D01*
X140096302Y-43162052D01*
X140253872Y-43018407D01*
X140382366Y-42848255D01*
X140403292Y-42806229D01*
X140477403Y-42657394D01*
X140477403Y-42657393D01*
X140477405Y-42657389D01*
X140535756Y-42452310D01*
X140542029Y-42384605D01*
X140567814Y-42319669D01*
X140624614Y-42278981D01*
X140694395Y-42275461D01*
X140755002Y-42310225D01*
X140787193Y-42372238D01*
X140789500Y-42396047D01*
X140789500Y-43134856D01*
X140789502Y-43134882D01*
X140792413Y-43159987D01*
X140792415Y-43159991D01*
X140837793Y-43262764D01*
X140837794Y-43262765D01*
X140917235Y-43342206D01*
X141020009Y-43387585D01*
X141045135Y-43390500D01*
X142756000Y-43390499D01*
X142823039Y-43410184D01*
X142868794Y-43462987D01*
X142880000Y-43514499D01*
X142880000Y-44000000D01*
X143675500Y-44000000D01*
X143742539Y-44019685D01*
X143788294Y-44072489D01*
X143799500Y-44124000D01*
X143799500Y-44325500D01*
X143779815Y-44392539D01*
X143727011Y-44438294D01*
X143675500Y-44449500D01*
X122924500Y-44449500D01*
X122857461Y-44429815D01*
X122811706Y-44377011D01*
X122800500Y-44325500D01*
X122800500Y-32371628D01*
X124770000Y-32371628D01*
X124770000Y-32482500D01*
X125470000Y-32482500D01*
X125470000Y-31825862D01*
X125480000Y-31791806D01*
X125480000Y-31302500D01*
X124780000Y-31302500D01*
X124780000Y-31413371D01*
X124782799Y-31448941D01*
X124782800Y-31448947D01*
X124827030Y-31601186D01*
X124827032Y-31601191D01*
X124907735Y-31737653D01*
X124907741Y-31737661D01*
X124969899Y-31799819D01*
X125003384Y-31861142D01*
X124998400Y-31930834D01*
X124969899Y-31975181D01*
X124897741Y-32047338D01*
X124897735Y-32047346D01*
X124817032Y-32183808D01*
X124817030Y-32183813D01*
X124772800Y-32336052D01*
X124772799Y-32336058D01*
X124770000Y-32371628D01*
X122800500Y-32371628D01*
X122800500Y-30206021D01*
X122820185Y-30138982D01*
X122872989Y-30093227D01*
X122942147Y-30083283D01*
X122999984Y-30107645D01*
X123040824Y-30138982D01*
X123087157Y-30174535D01*
X123087158Y-30174535D01*
X123087159Y-30174536D01*
X123233238Y-30235044D01*
X123293435Y-30242969D01*
X123389999Y-30255682D01*
X123390000Y-30255682D01*
X123390001Y-30255682D01*
X123442254Y-30248802D01*
X123546762Y-30235044D01*
X123692841Y-30174536D01*
X123780128Y-30107557D01*
X123845295Y-30082365D01*
X123913740Y-30096403D01*
X123920105Y-30100494D01*
X123920119Y-30100472D01*
X123927157Y-30104534D01*
X123927159Y-30104536D01*
X124073238Y-30165044D01*
X124145330Y-30174535D01*
X124229999Y-30185682D01*
X124230000Y-30185682D01*
X124230001Y-30185682D01*
X124282254Y-30178802D01*
X124386762Y-30165044D01*
X124532841Y-30104536D01*
X124658282Y-30008282D01*
X124663932Y-30002632D01*
X124725254Y-29969144D01*
X124794945Y-29974125D01*
G37*
%TD.AperFunction*%
%TD*%
M02*
